<?xml version="1.0" standalone="no"?>
<!DOCTYPE svg PUBLIC "-//W3C//DTD SVG 20010904//EN"
 "http://www.w3.org/TR/2001/REC-SVG-20010904/DTD/svg10.dtd">
<svg version="1.0" xmlns="http://www.w3.org/2000/svg"
 width="1024.000000pt" height="1024.000000pt" viewBox="0 0 1024.000000 1024.000000"
 preserveAspectRatio="xMidYMid meet">

<g transform="translate(0.000000,1024.000000) scale(0.100000,-0.100000)"
fill="#000000" stroke="none">
<path d="M5120 8535 c0 -2 55 -34 123 -71 420 -232 734 -478 1011 -794 181
-206 307 -389 398 -580 32 -69 62 -131 66 -138 4 -7 32 -23 62 -36 30 -12 88
-41 128 -64 41 -23 75 -42 77 -42 2 0 -14 44 -35 98 -90 231 -243 495 -408
702 -86 108 -323 347 -427 432 -169 136 -437 297 -618 370 -59 24 -377 127
-377 123z"/>
<path d="M3762 8495 c-460 -62 -857 -206 -1207 -439 -127 -84 -203 -143 -320
-246 -105 -94 -283 -280 -267 -280 5 0 17 9 28 21 27 30 264 188 381 253 286
159 627 271 953 311 156 19 441 19 580 0 309 -41 595 -141 865 -300 387 -229
697 -546 914 -935 30 -52 55 -97 57 -98 1 -2 23 10 49 28 74 51 243 127 335
151 90 23 281 32 368 16 l44 -8 -50 96 c-158 299 -501 688 -810 918 -370 275
-759 436 -1212 503 -149 22 -573 27 -708 9z"/>
<path d="M4570 7184 c-472 -55 -871 -198 -1241 -445 -288 -192 -610 -526 -797
-825 -90 -145 -199 -384 -256 -559 -24 -77 -73 -290 -88 -385 -18 -116 -18
-579 0 -680 32 -178 102 -407 154 -500 19 -35 19 -35 12 -5 -57 265 -77 561
-55 801 38 397 177 800 392 1129 329 504 834 858 1432 1005 65 16 144 32 176
36 l58 6 6 82 c2 44 13 120 22 168 l17 86 57 -5 c31 -2 129 -18 219 -34 89
-16 236 -33 325 -39 195 -13 294 -24 367 -44 30 -8 56 -13 58 -12 6 7 -95 110
-127 131 -91 57 -254 86 -506 90 -104 2 -206 1 -225 -1z"/>
<path d="M4521 6871 c-21 -116 -10 -289 22 -374 58 -150 180 -287 317 -356 45
-22 89 -41 96 -41 30 0 11 -23 -59 -68 -365 -238 -684 -527 -1024 -927 -306
-360 -575 -828 -706 -1230 -32 -96 -81 -311 -95 -415 -36 -260 -15 -574 54
-792 98 -310 290 -575 558 -766 48 -34 89 -62 92 -62 3 0 -27 35 -66 78 -249
271 -390 600 -393 917 0 111 11 245 22 245 3 0 12 -30 19 -67 32 -171 150
-453 267 -638 97 -154 239 -317 374 -429 377 -314 882 -474 1355 -429 l68 6
-133 27 c-172 35 -294 76 -446 151 -226 111 -405 242 -588 430 -168 173 -263
305 -363 506 -259 516 -266 1089 -19 1650 80 181 244 424 393 583 8 8 -15 -42
-50 -110 -90 -175 -166 -406 -202 -615 -20 -117 -30 -464 -16 -577 46 -366
190 -717 410 -993 339 -426 780 -667 1312 -716 211 -19 464 -2 650 45 292 75
541 192 775 366 201 150 388 344 500 519 63 100 67 114 14 62 -129 -128 -288
-211 -519 -269 -97 -25 -121 -27 -315 -27 -230 0 -288 9 -455 67 -361 127
-679 431 -820 781 -70 175 -85 255 -84 482 0 184 3 208 27 300 68 253 217 451
416 554 100 51 175 72 291 80 l95 6 -72 19 c-107 27 -182 67 -254 134 -121
114 -168 228 -167 407 0 55 5 123 12 150 l12 50 6 -100 c6 -117 28 -179 93
-271 82 -115 196 -192 345 -233 138 -39 345 -24 509 35 36 13 58 18 47 11 -10
-6 -51 -33 -90 -58 -142 -91 -287 -281 -337 -439 -89 -286 -55 -601 91 -836
104 -169 225 -286 380 -371 l83 -45 -36 42 c-74 87 -137 252 -137 365 0 49 0
49 16 25 32 -48 119 -132 177 -171 32 -21 60 -39 62 -39 2 0 -14 38 -35 84
-57 119 -74 199 -74 341 0 139 22 235 81 347 75 144 223 279 353 322 90 30
227 32 349 6 224 -48 392 9 500 171 44 66 50 85 24 75 -27 -11 -186 -8 -252 4
-85 15 -186 58 -267 114 -114 78 -307 216 -301 216 3 0 27 -10 54 -21 81 -36
336 -116 435 -138 130 -28 241 -36 309 -22 87 18 89 22 75 115 -11 78 -11 79
-47 91 -70 25 -117 55 -159 102 -23 26 -46 56 -51 66 -9 15 155 -78 233 -134
15 -10 29 -19 31 -19 3 0 8 40 11 90 7 88 7 90 -23 134 -31 45 -181 168 -411
338 -530 391 -523 384 -614 574 -30 61 -68 127 -85 147 -41 46 -213 163 -316
215 -268 134 -556 130 -787 -10 -85 -51 -173 -130 -208 -187 -14 -22 -28 -41
-31 -41 -4 0 -18 17 -31 38 -39 58 -137 154 -202 197 -132 86 -275 125 -458
125 -158 0 -321 16 -403 40 -38 11 -73 20 -77 20 -17 0 62 -119 112 -169 75
-76 126 -101 325 -160 274 -83 375 -143 565 -337 58 -59 98 -103 90 -98 -8 4
-118 11 -245 15 -272 9 -338 22 -490 99 -117 59 -207 129 -286 223 -94 112
-169 277 -187 412 l-8 60 -13 -74z m2077 -446 c225 -11 252 -29 353 -227 l72
-143 -56 53 c-67 62 -100 78 -199 93 -108 16 -146 37 -257 143 -93 90 -98 96
-68 92 17 -3 87 -8 155 -11z m-1181 -717 c-116 -115 -188 -206 -262 -327 -358
-590 -389 -1345 -81 -1976 280 -572 847 -1022 1416 -1123 l105 -18 -120 -7
c-378 -20 -717 76 -1050 298 -370 247 -649 624 -774 1045 -32 108 -58 228 -63
290 -3 34 -4 33 -16 -18 -39 -170 -40 -408 -2 -592 40 -195 127 -420 218 -564
45 -72 -5 -18 -98 105 -105 140 -154 222 -208 349 -110 261 -153 469 -153 743
0 339 63 618 211 922 161 333 396 604 700 806 68 45 255 156 268 158 2 1 -39
-41 -91 -91z"/>
</g>
</svg>
